<svg width="100020" height="100020" xmlns="http://www.w3.org/2000/svg">
<line x1="0" y1="50010.0" x2="100020" y2="50010.0" stroke="black" stroke-width="2"/>
<circle cx="13510.0" cy="50010.0" r="200.0" stroke="blue" stroke-width="2" fill="none" />
<circle cx="8210.0" cy="50010.0" r="100.0" stroke="blue" stroke-width="2" fill="none" />
<circle cx="5560.0" cy="50010.0" r="50.0" stroke="blue" stroke-width="2" fill="none" />
<circle cx="4360.0" cy="50010.0" r="750.0" stroke="blue" stroke-width="2" fill="none" />
<circle cx="5860.0" cy="50010.0" r="250.0" stroke="blue" stroke-width="2" fill="none" />
<circle cx="4610.0" cy="50010.0" r="400.0" stroke="blue" stroke-width="2" fill="none" />
<circle cx="24660.0" cy="50010.0" r="3850.0" stroke="blue" stroke-width="2" fill="none" />
<circle cx="3910.0" cy="50010.0" r="100.0" stroke="blue" stroke-width="2" fill="none" />
<circle cx="10710.0" cy="50010.0" r="100.0" stroke="blue" stroke-width="2" fill="none" />
<circle cx="10910.0" cy="50010.0" r="100.0" stroke="blue" stroke-width="2" fill="none" />
<circle cx="11910.0" cy="50010.0" r="1100.0" stroke="blue" stroke-width="2" fill="none" />
<circle cx="11210.0" cy="50010.0" r="100.0" stroke="blue" stroke-width="2" fill="none" />
<circle cx="10960.0" cy="50010.0" r="150.0" stroke="blue" stroke-width="2" fill="none" />
<circle cx="4360.0" cy="50010.0" r="150.0" stroke="blue" stroke-width="2" fill="none" />
<circle cx="8510.0" cy="50010.0" r="100.0" stroke="blue" stroke-width="2" fill="none" />
<circle cx="12210.0" cy="50010.0" r="200.0" stroke="blue" stroke-width="2" fill="none" />
<circle cx="1510.0" cy="50010.0" r="1500.0" stroke="blue" stroke-width="2" fill="none" />
<circle cx="12260.0" cy="50010.0" r="250.0" stroke="blue" stroke-width="2" fill="none" />
<circle cx="25310.0" cy="50010.0" r="25300.0" stroke="blue" stroke-width="2" fill="none" />
<circle cx="7310.0" cy="50010.0" r="200.0" stroke="blue" stroke-width="2" fill="none" />
<circle cx="50760.0" cy="50010.0" r="150.0" stroke="blue" stroke-width="2" fill="none" />
<circle cx="4310.0" cy="50010.0" r="100.0" stroke="blue" stroke-width="2" fill="none" />
<circle cx="8010.0" cy="50010.0" r="100.0" stroke="blue" stroke-width="2" fill="none" />
<circle cx="8360.0" cy="50010.0" r="50.0" stroke="blue" stroke-width="2" fill="none" />
<circle cx="24760.0" cy="50010.0" r="3750.0" stroke="blue" stroke-width="2" fill="none" />
<circle cx="5610.0" cy="50010.0" r="500.0" stroke="blue" stroke-width="2" fill="none" />
<circle cx="7210.0" cy="50010.0" r="100.0" stroke="blue" stroke-width="2" fill="none" />
<circle cx="24860.0" cy="50010.0" r="3650.0" stroke="blue" stroke-width="2" fill="none" />
<circle cx="12760.0" cy="50010.0" r="150.0" stroke="blue" stroke-width="2" fill="none" />
<circle cx="4860.0" cy="50010.0" r="1250.0" stroke="blue" stroke-width="2" fill="none" />
<circle cx="5160.0" cy="50010.0" r="50.0" stroke="blue" stroke-width="2" fill="none" />
<circle cx="5210.0" cy="50010.0" r="100.0" stroke="blue" stroke-width="2" fill="none" />
<circle cx="7610.0" cy="50010.0" r="500.0" stroke="blue" stroke-width="2" fill="none" />
<circle cx="6110.0" cy="50010.0" r="2500.0" stroke="blue" stroke-width="2" fill="none" />
<circle cx="6810.0" cy="50010.0" r="100.0" stroke="blue" stroke-width="2" fill="none" />
<circle cx="50010.0" cy="50010.0" r="50000.0" stroke="blue" stroke-width="2" fill="none" />
<circle cx="3310.0" cy="50010.0" r="300.0" stroke="blue" stroke-width="2" fill="none" />
<circle cx="10410.0" cy="50010.0" r="200.0" stroke="blue" stroke-width="2" fill="none" />
<circle cx="36460.0" cy="50010.0" r="7650.0" stroke="blue" stroke-width="2" fill="none" />
<circle cx="4160.0" cy="50010.0" r="50.0" stroke="blue" stroke-width="2" fill="none" />
<circle cx="5460.0" cy="50010.0" r="150.0" stroke="blue" stroke-width="2" fill="none" />
<circle cx="8360.0" cy="50010.0" r="5350.0" stroke="blue" stroke-width="2" fill="none" />
<circle cx="7660.0" cy="50010.0" r="150.0" stroke="blue" stroke-width="2" fill="none" />
<circle cx="12110.0" cy="50010.0" r="100.0" stroke="blue" stroke-width="2" fill="none" />
<circle cx="12310.0" cy="50010.0" r="100.0" stroke="blue" stroke-width="2" fill="none" />
<circle cx="5410.0" cy="50010.0" r="100.0" stroke="blue" stroke-width="2" fill="none" />
<circle cx="13110.0" cy="50010.0" r="100.0" stroke="blue" stroke-width="2" fill="none" />
<circle cx="6210.0" cy="50010.0" r="100.0" stroke="blue" stroke-width="2" fill="none" />
<circle cx="47410.0" cy="50010.0" r="3200.0" stroke="blue" stroke-width="2" fill="none" />
<circle cx="5910.0" cy="50010.0" r="100.0" stroke="blue" stroke-width="2" fill="none" />
<circle cx="36510.0" cy="50010.0" r="7700.0" stroke="blue" stroke-width="2" fill="none" />
<circle cx="11860.0" cy="50010.0" r="150.0" stroke="blue" stroke-width="2" fill="none" />
<circle cx="6610.0" cy="50010.0" r="3600.0" stroke="blue" stroke-width="2" fill="none" />
<circle cx="7710.0" cy="50010.0" r="200.0" stroke="blue" stroke-width="2" fill="none" />
<circle cx="28660.0" cy="50010.0" r="150.0" stroke="blue" stroke-width="2" fill="none" />
<circle cx="11460.0" cy="50010.0" r="150.0" stroke="blue" stroke-width="2" fill="none" />
<circle cx="11660.0" cy="50010.0" r="850.0" stroke="blue" stroke-width="2" fill="none" />
<circle cx="7410.0" cy="50010.0" r="100.0" stroke="blue" stroke-width="2" fill="none" />
<circle cx="11760.0" cy="50010.0" r="50.0" stroke="blue" stroke-width="2" fill="none" />
<circle cx="11410.0" cy="50010.0" r="300.0" stroke="blue" stroke-width="2" fill="none" />
<circle cx="8460.0" cy="50010.0" r="50.0" stroke="blue" stroke-width="2" fill="none" />
<circle cx="20910.0" cy="50010.0" r="100.0" stroke="blue" stroke-width="2" fill="none" />
<circle cx="4510.0" cy="50010.0" r="300.0" stroke="blue" stroke-width="2" fill="none" />
<circle cx="11410.0" cy="50010.0" r="600.0" stroke="blue" stroke-width="2" fill="none" />
<circle cx="11810.0" cy="50010.0" r="100.0" stroke="blue" stroke-width="2" fill="none" />
<circle cx="4660.0" cy="50010.0" r="450.0" stroke="blue" stroke-width="2" fill="none" />
<circle cx="4560.0" cy="50010.0" r="350.0" stroke="blue" stroke-width="2" fill="none" />
<circle cx="21110.0" cy="50010.0" r="100.0" stroke="blue" stroke-width="2" fill="none" />
<circle cx="6410.0" cy="50010.0" r="100.0" stroke="blue" stroke-width="2" fill="none" />
<circle cx="7610.0" cy="50010.0" r="100.0" stroke="blue" stroke-width="2" fill="none" />
<circle cx="23610.0" cy="50010.0" r="20600.0" stroke="blue" stroke-width="2" fill="none" />
<circle cx="13460.0" cy="50010.0" r="150.0" stroke="blue" stroke-width="2" fill="none" />
<circle cx="6060.0" cy="50010.0" r="50.0" stroke="blue" stroke-width="2" fill="none" />
<circle cx="6910.0" cy="50010.0" r="200.0" stroke="blue" stroke-width="2" fill="none" />
<circle cx="4560.0" cy="50010.0" r="50.0" stroke="blue" stroke-width="2" fill="none" />
<circle cx="50810.0" cy="50010.0" r="200.0" stroke="blue" stroke-width="2" fill="none" />
<circle cx="11060.0" cy="50010.0" r="50.0" stroke="blue" stroke-width="2" fill="none" />
<circle cx="17310.0" cy="50010.0" r="3400.0" stroke="blue" stroke-width="2" fill="none" />
<circle cx="75510.0" cy="50010.0" r="24500.0" stroke="blue" stroke-width="2" fill="none" />
<circle cx="3960.0" cy="50010.0" r="150.0" stroke="blue" stroke-width="2" fill="none" />
<circle cx="11360.0" cy="50010.0" r="250.0" stroke="blue" stroke-width="2" fill="none" />
<circle cx="17360.0" cy="50010.0" r="3450.0" stroke="blue" stroke-width="2" fill="none" />
<circle cx="3710.0" cy="50010.0" r="100.0" stroke="blue" stroke-width="2" fill="none" />
<circle cx="13160.0" cy="50010.0" r="150.0" stroke="blue" stroke-width="2" fill="none" />
<circle cx="4060.0" cy="50010.0" r="50.0" stroke="blue" stroke-width="2" fill="none" />
<circle cx="7960.0" cy="50010.0" r="50.0" stroke="blue" stroke-width="2" fill="none" />
<circle cx="6860.0" cy="50010.0" r="150.0" stroke="blue" stroke-width="2" fill="none" />
</svg>