<?xml version="1.0" encoding="UTF-8" standalone="no"?>
<!DOCTYPE svg PUBLIC "-//W3C//DTD SVG 1.1//EN"
 "http://www.w3.org/Graphics/SVG/1.1/DTD/svg11.dtd">
<!-- Generated by graphviz version 12.2.1 (20241206.2353)
 -->
<!-- Pages: 1 -->
<svg width="557pt" height="394pt"
 viewBox="0.00 0.00 557.12 393.96" xmlns="http://www.w3.org/2000/svg" xmlns:xlink="http://www.w3.org/1999/xlink">
<g id="graph0" class="graph" transform="scale(1 1) rotate(0) translate(4 389.96)">
<polygon fill="white" stroke="none" points="-4,4 -4,-389.96 553.12,-389.96 553.12,4 -4,4"/>
<!-- call_1 -->
<g id="node1" class="node">
<title>call_1</title>
<ellipse fill="none" stroke="black" cx="274.56" cy="-333.63" rx="85.56" ry="52.33"/>
<text text-anchor="middle" x="274.56" y="-353.33" font-family="Times,serif" font-size="14.00">cal(start=1, end=8)</text>
<text text-anchor="middle" x="274.56" y="-336.83" font-family="Times,serif" font-size="14.00">start at: 1</text>
<text text-anchor="middle" x="274.56" y="-320.33" font-family="Times,serif" font-size="14.00">finish at:5</text>
<text text-anchor="middle" x="274.56" y="-303.83" font-family="Times,serif" font-size="14.00">return: 8</text>
</g>
<!-- call_2 -->
<g id="node2" class="node">
<title>call_2</title>
<ellipse fill="none" stroke="black" cx="85.56" cy="-192.98" rx="85.56" ry="52.33"/>
<text text-anchor="middle" x="85.56" y="-212.68" font-family="Times,serif" font-size="14.00">cal(start=3, end=5)</text>
<text text-anchor="middle" x="85.56" y="-196.18" font-family="Times,serif" font-size="14.00">start at: 2</text>
<text text-anchor="middle" x="85.56" y="-179.68" font-family="Times,serif" font-size="14.00">finish at:2</text>
<text text-anchor="middle" x="85.56" y="-163.18" font-family="Times,serif" font-size="14.00">return: 8</text>
</g>
<!-- call_1&#45;&gt;call_2 -->
<g id="edge1" class="edge">
<title>call_1&#45;&gt;call_2</title>
<path fill="none" stroke="black" d="M220.15,-292.71C197.91,-276.4 172.03,-257.42 148.95,-240.48"/>
<polygon fill="black" stroke="black" points="151.27,-237.84 141.14,-234.75 147.13,-243.49 151.27,-237.84"/>
</g>
<!-- call_4 -->
<g id="node4" class="node">
<title>call_4</title>
<ellipse fill="none" stroke="black" cx="274.56" cy="-192.98" rx="85.56" ry="52.33"/>
<text text-anchor="middle" x="274.56" y="-212.68" font-family="Times,serif" font-size="14.00">cal(start=1, end=2)</text>
<text text-anchor="middle" x="274.56" y="-196.18" font-family="Times,serif" font-size="14.00">start at: 4</text>
<text text-anchor="middle" x="274.56" y="-179.68" font-family="Times,serif" font-size="14.00">finish at:3</text>
<text text-anchor="middle" x="274.56" y="-163.18" font-family="Times,serif" font-size="14.00">return: 2</text>
</g>
<!-- call_1&#45;&gt;call_4 -->
<g id="edge3" class="edge">
<title>call_1&#45;&gt;call_4</title>
<path fill="none" stroke="black" d="M274.56,-281C274.56,-273.15 274.56,-264.98 274.56,-256.92"/>
<polygon fill="black" stroke="black" points="278.06,-257.16 274.56,-247.16 271.06,-257.16 278.06,-257.16"/>
</g>
<!-- call_5 -->
<g id="node5" class="node">
<title>call_5</title>
<ellipse fill="none" stroke="black" cx="463.56" cy="-192.98" rx="85.56" ry="52.33"/>
<text text-anchor="middle" x="463.56" y="-212.68" font-family="Times,serif" font-size="14.00">cal(start=6, end=8)</text>
<text text-anchor="middle" x="463.56" y="-196.18" font-family="Times,serif" font-size="14.00">start at: 5</text>
<text text-anchor="middle" x="463.56" y="-179.68" font-family="Times,serif" font-size="14.00">finish at:4</text>
<text text-anchor="middle" x="463.56" y="-163.18" font-family="Times,serif" font-size="14.00">return: 0</text>
</g>
<!-- call_1&#45;&gt;call_5 -->
<g id="edge4" class="edge">
<title>call_1&#45;&gt;call_5</title>
<path fill="none" stroke="black" d="M328.97,-292.71C351.21,-276.4 377.09,-257.42 400.17,-240.48"/>
<polygon fill="black" stroke="black" points="401.99,-243.49 407.98,-234.75 397.85,-237.84 401.99,-243.49"/>
</g>
<!-- call_3 -->
<g id="node3" class="node">
<title>call_3</title>
<ellipse fill="none" stroke="black" cx="85.56" cy="-52.33" rx="85.56" ry="52.33"/>
<text text-anchor="middle" x="85.56" y="-72.03" font-family="Times,serif" font-size="14.00">cal(start=4, end=5)</text>
<text text-anchor="middle" x="85.56" y="-55.53" font-family="Times,serif" font-size="14.00">start at: 3</text>
<text text-anchor="middle" x="85.56" y="-39.03" font-family="Times,serif" font-size="14.00">finish at:1</text>
<text text-anchor="middle" x="85.56" y="-22.53" font-family="Times,serif" font-size="14.00">return: 5</text>
</g>
<!-- call_2&#45;&gt;call_3 -->
<g id="edge2" class="edge">
<title>call_2&#45;&gt;call_3</title>
<path fill="none" stroke="black" d="M85.56,-140.35C85.56,-132.5 85.56,-124.33 85.56,-116.27"/>
<polygon fill="black" stroke="black" points="89.06,-116.51 85.56,-106.51 82.06,-116.51 89.06,-116.51"/>
</g>
<!-- call_6 -->
<g id="node6" class="node">
<title>call_6</title>
<ellipse fill="none" stroke="black" cx="463.56" cy="-333.63" rx="85.56" ry="52.33"/>
<text text-anchor="middle" x="463.56" y="-353.33" font-family="Times,serif" font-size="14.00">cal(start=1, end=5)</text>
<text text-anchor="middle" x="463.56" y="-336.83" font-family="Times,serif" font-size="14.00">start at: 6</text>
<text text-anchor="middle" x="463.56" y="-320.33" font-family="Times,serif" font-size="14.00">finish at:6</text>
<text text-anchor="middle" x="463.56" y="-303.83" font-family="Times,serif" font-size="14.00">return: 4000</text>
</g>
</g>
</svg>
